<svg xmlns="http://www.w3.org/2000/svg" aria-hidden="true" style="position:absolute;width:0;height:0;overflow:hidden">
  <defs>
    <symbol id="logo" viewBox="0 0 240 32">
      <path fill="#0a224a" d="M0 31.998V0h5.992l14.812 10.383h.226L35.842 0h5.992v31.998h-7.161V8.951l-10.157 6.803v16.244h-7.161V15.754L7.16 8.951v23.047H-.001zm48.562 0V0h7.161v31.998h-7.161zm13.869 0V0h7.236l22.651 22.99V0h7.161v31.998h-7.255L69.592 8.951v23.047h-7.161zm43.757 0V0h7.161v31.998h-7.161zm13.869 0V0h5.992l14.812 10.383h.226L155.899 0h5.993v31.998h-7.161V8.951l-10.157 6.803v16.244h-7.161V15.754l-10.195-6.803v23.047h-7.161zm45.867 0L180.34 0h11.062l14.416 31.998h-7.802l-3.034-6.765H176.76l-3.034 6.765h-7.802zm43.927 0V0h7.161v26.175h23.405v5.823h-30.565zM179.36 19.41h13.021l-6.219-13.832h-.584l-6.219 13.832z" style="fill:var(--color1, #0a224a)"/>
    </symbol>
    <symbol id="error" viewBox="0 0 32 32">
      <path fill="#e74a3b" d="M14.667 20h2.667v2.667h-2.667V20zm0-10.667h2.667v8h-2.667v-8zm1.32-6.666c-7.373 0-13.32 5.96-13.32 13.333 0 7.36 5.947 13.333 13.32 13.333S29.334 23.36 29.334 16c0-7.373-5.973-13.333-13.347-13.333zm.013 24c-5.893 0-10.667-4.773-10.667-10.667A10.655 10.655 0 0 1 16 5.333c5.88 0 10.667 4.76 10.667 10.667 0 5.893-4.787 10.667-10.667 10.667z" style="fill:var(--color2, #e74a3b)"/>
    </symbol>
    <symbol id="checkbox" viewBox="0 0 32 32">
      <path stroke-linecap="round" stroke-linejoin="round" stroke-width="3.692" d="M26.658 8 11.987 22.646 5.316 16"/>
    </symbol>
    <symbol id="facebook" viewBox="0 0 32 32">
      <path d="M29 16c0-2.576-.768-5.088-2.192-7.224a13 13 0 0 0-13.352-5.528A12.994 12.994 0 0 0 6.8 6.8a12.994 12.994 0 0 0-3.552 6.656 13 13 0 0 0 5.528 13.352A13.026 13.026 0 0 0 16 29a13.031 13.031 0 0 0 13-13zM17 26.944V19h3c.264 0 .512-.112.704-.296.184-.192.296-.44.296-.704 0-.272-.112-.52-.296-.712A1.013 1.013 0 0 0 20 17h-3v-3a1.99 1.99 0 0 1 2-2h2c.264 0 .512-.112.704-.296.184-.192.296-.44.296-.704 0-.272-.112-.52-.296-.712A1.013 1.013 0 0 0 21 10h-2c-1.064 0-2.08.424-2.832 1.168A4.029 4.029 0 0 0 15 14v3h-3c-.272 0-.52.104-.712.288a1.018 1.018 0 0 0 0 1.416c.192.184.44.296.712.296h3v7.944a11.021 11.021 0 0 1-7.296-3.72 11.034 11.034 0 0 1-2.696-7.736A10.983 10.983 0 0 1 8.4 8.04 10.969 10.969 0 0 1 16 4.992c2.824 0 5.552 1.088 7.592 3.048a10.983 10.983 0 0 1 3.392 7.448c.128 2.832-.84 5.6-2.696 7.736A11.02 11.02 0 0 1 17 26.944z"/>
    </symbol>
    <symbol id="instagram" viewBox="0 0 32 32">
      <path d="M16 10a5.949 5.949 0 0 0-3.336 1.008 5.896 5.896 0 0 0-2.208 2.688 6.002 6.002 0 0 0 1.296 6.544 6.002 6.002 0 0 0 6.544 1.296 5.896 5.896 0 0 0 2.688-2.208A5.95 5.95 0 0 0 22 16a6.04 6.04 0 0 0-1.76-4.248A6.028 6.028 0 0 0 16 10zm0 10c-.792 0-1.568-.24-2.224-.68a3.925 3.925 0 0 1-1.472-1.792 3.982 3.982 0 0 1 .864-4.36 3.982 3.982 0 0 1 4.36-.864 3.925 3.925 0 0 1 1.792 1.472c.44.656.68 1.432.68 2.224a4.067 4.067 0 0 1-1.176 2.824A4.067 4.067 0 0 1 16 20zm5.496-16.504h-11c-1.856 0-3.64.736-4.952 2.048S3.496 8.64 3.496 10.496v11c0 1.856.736 3.64 2.048 4.952s3.096 2.048 4.952 2.048h11c1.856 0 3.64-.736 4.952-2.048s2.048-3.096 2.048-4.952v-11c0-1.856-.736-3.64-2.048-4.952s-3.096-2.048-4.952-2.048zm5 18c0 .656-.128 1.304-.384 1.912a4.933 4.933 0 0 1-2.704 2.704 4.916 4.916 0 0 1-1.912.384h-11a4.916 4.916 0 0 1-1.912-.384 4.933 4.933 0 0 1-2.704-2.704 4.916 4.916 0 0 1-.384-1.912v-11a5.001 5.001 0 0 1 5-5h11c.656 0 1.304.128 1.912.384a4.933 4.933 0 0 1 2.704 2.704c.256.608.384 1.256.384 1.912v11zM24 9.496a1.505 1.505 0 0 1-2.568 1.064 1.532 1.532 0 0 1-.408-.768 1.505 1.505 0 0 1 .64-1.544A1.47 1.47 0 0 1 22.496 8c.4 0 .776.152 1.064.432.28.288.44.664.44 1.064z"/>
    </symbol>
    <symbol id="youtube" viewBox="0 0 32 32">
      <path d="m20.544 15.16-6-4a1.04 1.04 0 0 0-1.024-.048.897.897 0 0 0-.384.368A.906.906 0 0 0 13 12v8c-.008.176.04.36.136.512.088.16.224.288.384.368.152.08.312.112.48.12.192-.008.384-.064.544-.168l6-4A.986.986 0 0 0 21 16a.994.994 0 0 0-.456-.84zM15 18.136v-4.28L18.2 16 15 18.136zM29.28 8.72a2.937 2.937 0 0 0-.648-1.24 3.055 3.055 0 0 0-1.16-.8C23.2 5.032 16.368 5.048 16 5.048c-.376 0-7.2-.016-11.48 1.632-.44.168-.84.448-1.16.8a2.937 2.937 0 0 0-.648 1.24C2.384 9.96 2 12.232 2 16c0 3.76.384 6.032.712 7.272.112.456.336.888.648 1.24.32.352.72.632 1.16.8 4.104 1.584 10.528 1.632 11.392 1.632h.168c.864 0 7.288-.048 11.392-1.632.44-.168.84-.448 1.16-.8.312-.352.536-.784.648-1.24.328-1.24.72-3.512.72-7.272 0-3.768-.392-6.04-.72-7.28zm-1.936 14.048a.865.865 0 0 1-.208.408.967.967 0 0 1-.376.272c-3.96 1.52-10.688 1.496-10.76 1.496h-.016c-.064 0-6.784.024-10.752-1.496a.967.967 0 0 1-.376-.272.865.865 0 0 1-.208-.408C4.344 21.632 4 19.544 4 16c0-3.552.344-5.64.648-6.776a.865.865 0 0 1 .208-.408.967.967 0 0 1 .376-.272C9.048 7.08 15.448 7.048 15.968 7.048H16c.072 0 6.8-.024 10.76 1.496a.967.967 0 0 1 .376.272.865.865 0 0 1 .208.408C27.648 10.36 28 12.448 28 16c0 3.544-.352 5.632-.656 6.768z"/>
    </symbol>
  </defs>
</svg>